<svg width="420" height="49" viewBox="0 0 420 49" fill="none" xmlns="http://www.w3.org/2000/svg">
<path fill-rule="evenodd" clip-rule="evenodd" d="M315.5 17.7C312.3 17.7 309.7 20.2999 309.7 23.5V26.7999C309.7 30 312.3 32.5999 315.5 32.5999C318.7 32.5999 321.3 30 321.3 26.7999V23.5C321.2 20.2999 318.7 17.7 315.5 17.7ZM315.5 1.69995C302.6 1.69995 292 12.2 292 25.1C292 38 302.6 48.5 315.5 48.5C328.4 48.5 339 38 339 25.1C339 12.2 328.4 1.69995 315.5 1.69995Z" fill="#175EA8"/>
<path fill-rule="evenodd" clip-rule="evenodd" d="M194.6 18.1C192.2 18.1 190.3 20 190.3 22.4V26.1C190.3 28.5 192.2 30.4 194.6 30.4C197 30.4 198.9 28.5 198.9 26.1V22.4C199 20.1 197 18.1 194.6 18.1ZM194.7 1C181.8 1 171.2 11.5 171.2 24.3C171.2 37.1 181.8 47.6 194.7 47.6C207.6 47.6 218.2 37.1 218.2 24.3C218.2 11.5 207.6 1 194.7 1Z" fill="#175EA8"/>
<path fill-rule="evenodd" clip-rule="evenodd" d="M354 1.90006C345.4 3.20006 340.5 9.50006 341.6 17.6001C342.6 24.9001 346.1 27.9001 357.8 31.5001C360.3 32.3001 361.1 33.3001 360.1 34.6001C359 36.0001 356.5 35.6001 350.5 33.0001C345.4 30.9001 342.1 31.9001 340.9 35.9001C339.5 40.6001 342 44.1001 348.5 46.8001C354.2 49.1001 364.7 48.8001 370.3 46.1001C378.2 42.3001 379.9 29.8001 373.3 23.8001C371 21.7001 368.7 20.6001 361.6 18.5001C358.1 17.4001 357.2 16.4001 358.6 15.1001C359.5 14.3001 360.9 14.4001 364.1 15.7001C371.5 18.6001 375.5 16.9001 375.5 10.7001C375.5 6.40006 372.4 3.80006 365.2 2.20006C363.1 1.80006 356 1.60006 354 1.90006Z" fill="#175EA8"/>
<path fill-rule="evenodd" clip-rule="evenodd" d="M257.9 1.69995C253.4 1.69995 249.8 5.29995 249.8 9.79995V10.2C249.8 14.7 253.4 18.2999 257.9 18.2999H263V40.4C263 44.9 266.6 48.5 271.1 48.5H272C276.5 48.5 280.1 44.9 280.1 40.4V18.2H285.2C289.7 18.2 293.3 14.6 293.3 10.1V9.79995C293.3 5.29995 289.7 1.69995 285.2 1.69995H257.9Z" fill="#175EA8"/>
<path fill-rule="evenodd" clip-rule="evenodd" d="M88.8996 0.699993C87.3996 0.999993 86.7996 1.19999 85.5996 1.89999C84.1996 2.69999 82.4996 4.99999 82.0996 6.79999C81.5996 9.19999 81.5996 8.39999 81.5996 24C81.5996 36 81.5996 38.6 81.6996 39.4C82.3996 44.1 84.4996 46.5 88.6996 47.4C89.7996 47.6 93.2996 47.7 94.2996 47.5C96.3996 47.1 96.7996 46.9 98.0996 46.3C100.3 45.2 101.9 43.2 101.9 41.1C101.9 40 101.7 39.5 99.4996 35.3C97.3996 31.4 97.5996 31.8 98.3996 31.4C99.1996 31 99.0996 30.8 101.1 34.9C104.6 41.8 105.3 43 107.2 45C109.2 47 110.8 47.7 114.2 47.7C120.3 47.7 123.4 45 124.1 39.2C124.3 37 124.3 9.59999 124 8.29999C123.3 4.49999 121.6 2.39999 118.6 1.19999C115.5 0.0999931 110.3 0.399993 107.4 1.99999C104.8 3.39999 103.4 5.99999 104.1 8.29999C104.3 8.79999 104.4 9.09999 105.7 11.9C107.8 16.3 107.7 15.8 106.7 16.1C106.3 16.2 106 16.3 106 16.3C106 16.3 105.4 15.2 104.8 13.9C100.1 3.99999 99.2996 2.79999 96.6996 1.49999C94.7996 0.599993 91.2996 0.199993 88.8996 0.699993Z" fill="#175EA8"/>
<path fill-rule="evenodd" clip-rule="evenodd" d="M14.1 26.3C13 26.3 12.1 27.2 12.1 28.3V31.5C12.1 32.6 13 33.5 14.1 33.5H19.8C21.8 33.5 23.4 31.9 23.4 29.9C23.4 27.9 21.8 26.3 19.8 26.3H14.1ZM12.4 14.6C12.4 13.6 13.2 12.9 14.1 12.9H18.4C20.2 12.9 21.7 14.4 21.7 16.2C21.7 18 20.2 19.5 18.4 19.5H14.1C13.1 19.5 12.4 18.7 12.4 17.8V14.6ZM0 12V7.4C0 3.6 3 0.5 6.8 0.5H11.3H11.4H23.4C30.3 0.5 35.9 6.1 35.9 13C35.9 16.9 33.8 20.2 30.7 22C35 24.2 37.9 28.7 37.9 33.8C37.9 41.2 31.9 47.2 24.5 47.2H16H6.8C3 47.2 0 44.2 0 40.4V33.9V33.8V33.7V12Z" fill="#175EA8"/>
<path fill-rule="evenodd" clip-rule="evenodd" d="M63.5997 23.9999V27.4999C63.5997 29.6999 61.7997 31.4999 59.5997 31.4999C57.3997 31.4999 55.5997 29.6999 55.5997 27.5999V24.0999C55.5997 21.8999 57.3997 20.0999 59.5997 20.0999C61.7997 19.9999 63.5997 21.7999 63.5997 23.9999ZM79.6997 37.8999L73.0997 13.3999C72.7997 11.9999 72.3997 10.7999 72.0997 9.6999C72.0997 9.5999 72.0997 9.4999 71.9997 9.4999C71.8997 9.1999 71.7997 8.8999 71.6997 8.5999C70.0997 3.3999 64.9997 0.899902 59.5997 0.899902H59.3997C53.6997 0.899902 48.7997 3.7999 47.2997 9.2999C46.9997 10.4999 46.5997 11.8999 46.1997 13.4999L39.5997 37.9999C38.4997 42.0999 40.8997 46.2999 44.9997 47.3999C49.0997 48.4999 53.2997 46.0999 54.3997 41.9999L54.4997 41.5999H64.6997L64.7997 41.8999C65.8997 45.9999 70.0997 48.3999 74.1997 47.2999C78.2997 46.1999 80.6997 41.9999 79.6997 37.8999Z" fill="#175EA8"/>
<path fill-rule="evenodd" clip-rule="evenodd" d="M402.8 24.9V28.4C402.8 30.6 401 32.4 398.8 32.4C396.6 32.4 394.8 30.6 394.8 28.5V25C394.8 22.8 396.6 21 398.8 21C401.1 20.9 402.8 22.7 402.8 24.9ZM418.9 38.8L412.3 14.3C412 12.9 411.6 11.7 411.3 10.6C411.3 10.5 411.3 10.5 411.2 10.4C411.1 10.1 411 9.80005 410.9 9.50005C409.2 4.30005 404.2 1.80005 398.7 1.80005H398.5C392.8 1.80005 387.9 4.70005 386.4 10.2C386.1 11.4 385.7 12.9 385.3 14.5L378.8 38.9001C377.7 43 380.1 47.2001 384.2 48.3C388.3 49.4 392.5 47 393.6 42.9001L393.7 42.5H404L404.1 42.8C405.2 46.9 409.4 49.3 413.5 48.2001C417.6 47.1001 420 42.9 418.9 38.8Z" fill="#175EA8"/>
<path fill-rule="evenodd" clip-rule="evenodd" d="M135.5 0.599902C135.3 0.699902 134.7 0.799902 134.3 0.899902C130.3 1.6999 128.2 4.3999 127.8 8.9999C127.6 10.8999 127.6 36.7999 127.8 38.9999C128.3 44.9999 131.4 47.6999 137.8 47.6999C143.6 47.6999 146.6 45.5999 147.6 40.7999C147.8 39.9999 147.8 39.3999 147.9 35.2999L148 30.6999L148.3 30.3999C148.7 30.0999 149.1 30.0999 149.5 30.3999L149.8 30.6999L149.9 35.1999C150 39.5999 150 40.4999 150.3 41.4999C150.4 41.6999 150.4 41.9999 150.4 42.0999C150.4 42.2999 150.9 43.2999 151.2 43.7999C152.8 46.4999 155.5 47.6999 159.9 47.6999C166.4 47.6999 169.5 44.9999 170 38.8999C170.1 37.0999 170.1 11.0999 170 9.3999C169.7 4.9999 168.2 2.6999 165 1.3999C163.2 0.699902 159.6 0.299902 157.7 0.699902C154.8 1.1999 153.6 1.7999 152.2 3.2999C150.4 5.2999 149.9 7.1999 149.9 12.7999C149.9 15.8999 149.9 15.9999 149.4 16.1999C149 16.3999 148.7 16.3999 148.3 16.0999L148.1 15.8999L148 12.1999C147.9 8.0999 147.8 7.2999 147.2 5.6999C146.1 2.7999 144.1 1.3999 140.2 0.599902C139.3 0.499902 136.1 0.499902 135.5 0.599902Z" fill="#175EA8"/>
<path fill-rule="evenodd" clip-rule="evenodd" d="M239.6 35.5001C239.5 35.4001 239.5 35.3001 239.4 35.2001C239.3 35.1001 239.3 35.1001 239.3 35.0001C239.3 34.9001 239.2 34.9001 239.2 34.9001C239.1 34.8001 239.1 34.8001 239 34.7001C238.9 34.6001 238.7 34.4001 238.5 34.2001C238.1 33.8001 237.6 33.2001 237 32.7001C236.5 32.2001 235.9 31.6001 235.5 31.2001C235.3 31.0001 235.1 30.8001 235 30.7001C234.9 30.6001 234.9 30.6001 234.8 30.5001L234.7 30.4001C234.7 30.4001 234.6 30.4001 234.6 30.3001C234.6 30.3001 234.5 30.2001 234.3 30.1001C233.7 29.7001 233.2 29.6001 233 29.6001C232.7 29.6001 232.5 29.6001 232.3 29.6001C232 29.6001 231.6 29.7001 231.4 29.8001C231.3 29.8001 231.1 29.9001 231 29.9001C229.4 30.4001 227.9 31.6001 227.1 33.1001C226.6 34.1001 226.4 34.9001 226.4 36.1001C226.4 38.3001 227.5 40.1001 229.1 41.3001C231.7 43.2001 235.1 42.8001 237.5 40.9001C237.9 40.6001 238.4 40.1001 238.7 39.8001C238.9 39.6001 239 39.4001 239.2 39.2001C239.3 39.1001 239.4 39.0001 239.5 38.8001C239.6 38.7001 239.6 38.6001 239.7 38.4001C239.8 38.3001 239.9 37.8001 239.9 37.2001C239.9 36.6001 239.7 36.2001 239.7 36.1001C239.7 35.7001 239.6 35.6001 239.6 35.5001ZM235.7 38.5001C234.2 39.7001 232.3 39.8001 230.9 38.8001C229.9 38.1001 229.4 37.2001 229.4 36.1001C229.4 35.5001 229.5 35.1001 229.8 34.5001C230.2 33.8001 231 33.1001 231.8 32.9001C231.9 32.9001 232.1 32.8001 232.2 32.8001C232.4 32.7001 232.6 32.7001 232.7 32.8001C232.8 32.9001 237 37.1001 237 37.2001C237 37.2001 236.2 38.1001 235.7 38.5001Z" fill="#175EA8"/>
<path fill-rule="evenodd" clip-rule="evenodd" d="M253.7 41.8C253.4 41 253.3 40.9 251.1 38.7C250 37.6 249.1 36.6 249.1 36.6C249.1 36.6 249.5 36.1 249.6 36C249.6 36 249.9 35.7 250.2 35.4C250.5 35.1 250.7 34.8 250.8 34.8C250.9 34.8 250.9 34.7 251.1 34.5C251.2 34.3 251.3 34.2 251.4 34.2C251.4 34.2 251.7 33.9 252 33.6C252.3 33.3 252.6 32.9 252.7 32.8C254.4 30.9 254.8 30.1 254.9 28.8C255.1 25.6 252.1 23.3 249.2 24.3C248.4 24.6 247.7 25.1 247 26C246.8 26.2 246.6 26.5 246.4 26.7C246.2 26.9 245.7 27.5 245.3 27.9C245.1 28.1 244.9 28.3 244.8 28.5C244.7 28.7 244.6 28.8 244.6 28.8C244.6 28.8 244.4 29 244.2 29.3C244 29.6 243.7 29.9 243.6 30C243.5 30.1 243.4 30.2 243.4 30.3C243.3 30.4 243.3 30.4 243.2 30.4C243.1 30.4 242.1 29.3 242 29.3C242 29.3 242.2 29 242.6 28.6C242.9 28.3 243.3 27.8 243.5 27.7C243.7 27.6 243.7 27.4 243.7 27.4L244.3 26.6C244.3 26.6 244.3 26.5 244.4 26.4C244.5 26.3 244.5 26.2 244.6 26.1C244.6 26 244.7 25.8 244.8 25.6C245.9 23.4 246.2 20.7 245.7 18.2C245.7 18 245.6 17.9 245.6 17.8C245.6 17.7 245.5 17.6 245.5 17.5C244.8 14.6 242.4 11.9 239.4 10.7C239.3 10.7 239.2 10.6 239.1 10.6C239 10.6 238.9 10.5 238.8 10.5C238.7 10.5 238.5 10.4 238.3 10.4C237.3 10.1 236.2 10 235 10.1C234.5 10.1 234 10.2 233.7 10.3C233.6 10.3 233.5 10.3 233.4 10.4C233.3 10.4 233.2 10.4 233.2 10.5C233.1 10.5 233 10.6 232.8 10.6C232.6 10.6 232.4 10.7 232.2 10.8C232 10.9 231.9 10.9 231.9 10.9C231.8 10.9 230.9 11.4 230.6 11.6C230.5 11.7 230.4 11.7 230.4 11.7C230.4 11.7 229.7 12.2 229.4 12.4C228.3 13.3 227.3 14.5 226.6 15.7C226.3 16.2 225.9 17.2 225.9 17.3V17.4C225.9 17.5 225.8 17.8 225.7 18C225.7 18.1 225.6 18.3 225.6 18.5C225.3 19.8 225.2 21.7 225.5 23.2C225.7 24.1 225.9 24.8 226.4 25.7C226.6 26.2 226.6 26.2 226.3 26.4C226.1 26.5 225.2 27.2 225.2 27.3C225.2 27.3 225 27.5 224.9 27.6C224.2 28.2 223.4 29.3 222.9 30.1C222.8 30.3 222.7 30.5 222.7 30.5C222.1 31.4 221.6 33 221.3 34.5C221.1 35.7 221.1 37.5 221.3 38.6C221.3 38.8 221.4 39 221.4 39.1C221.4 39.4 221.8 40.8 222 41C222 41 222.1 41.2 222.1 41.3C222.9 43.2 224.3 45.1 225.9 46.4C226.7 47 227.5 47.5 228.6 48C228.8 48.1 229.6 48.4 229.8 48.4C229.9 48.4 230 48.5 230.2 48.5C230.5 48.6 230.6 48.6 231.5 48.8C232.4 49 234.6 49 235.5 48.8C236.1 48.7 236.8 48.5 237 48.4C237.1 48.4 237.3 48.3 237.4 48.3C237.6 48.3 237.7 48.2 237.7 48.2H237.8C237.9 48.2 238.9 47.8 239.2 47.6C239.2 47.6 239.4 47.5 239.7 47.4C239.9 47.3 240.2 47.1 240.3 47C240.4 46.9 240.6 46.8 240.7 46.8C241.5 46.3 242.8 45.2 243.5 44.3C243.8 44 243.4 43.7 246.2 46.5C247.5 47.8 247.9 48.1 248.6 48.4C249.5 48.7 250.7 48.8 251.5 48.5C252.8 48 253.6 47.2 254.2 46C254.2 44.2 254.2 42.8 253.7 41.8ZM251 44.1C250.8 44.5 250.6 44.8 250 45C249.9 45 249.8 45 249.7 45C249.6 45 249.5 45 249.4 45C249.3 45 249.3 45 249.3 45C249.2 44.9 249.1 44.9 249.1 44.9C249.1 44.9 249.1 44.9 249 44.8C248.8 44.7 248.5 44.4 247.9 43.7C246.7 42.5 245.9 41.6 245.4 41.3C245.3 41.2 244.9 40.9 244.5 40.7C243.9 40.5 242.9 40.3 241.9 40.8C241.5 41 241.2 41.3 241 41.5C240.9 41.6 240.8 41.7 240.8 41.8C240.1 42.5 239.1 43.4 238.7 43.7C238.6 43.8 238.4 43.9 238.3 44L237.9 44.2C237.7 44.3 237.5 44.4 237.4 44.4C237.4 44.4 237.3 44.4 237.3 44.5C237.2 44.5 237.1 44.6 236.9 44.7C236.8 44.8 236.7 44.8 236.6 44.8C236.5 44.8 236.5 44.8 236.4 44.9C236.3 44.9 236.3 45 236.2 45C236 45.1 235.8 45.1 235.7 45.2C235.7 45.2 235.7 45.2 235.6 45.2C235.5 45.2 235.4 45.2 235.3 45.3C235.1 45.4 234.8 45.4 234.5 45.5C234.5 45.5 234.4 45.5 234.1 45.5C233.8 45.5 233.5 45.5 233.2 45.5C232.5 45.5 231.9 45.5 231.7 45.4C231.2 45.3 231 45.3 230.9 45.2C230.8 45.2 230.8 45.2 230.8 45.2C230.7 45.2 230.4 45.1 230.2 45C230.1 45 230 44.9 229.9 44.9C229.8 44.9 229.7 44.8 229.6 44.8H229.5C228.5 44.3 227.9 44 227.3 43.5C226.1 42.5 225 41.1 224.4 39.7C224.4 39.6 224.3 39.4 224.2 39.2C224.2 39.3 224.3 39.3 224.2 39.3V39.2C224.2 39.1 224.1 38.9 224.1 38.7C224 38.5 224 38.3 224 38.2C224 38.1 224 38.1 224 38C224 37.8 223.9 37.6 223.9 37.5C223.8 36.7 223.8 35.3 223.9 34.5C224.1 33.2 224.6 32 224.9 31.5C225 31.4 225.1 31.2 225.2 31C225.6 30.4 226.2 29.6 226.6 29.2C226.7 29.1 226.8 29 226.8 29L226.9 28.9C227 28.8 227.1 28.8 227.2 28.7C227.3 28.6 227.4 28.5 227.5 28.5C227.5 28.5 227.6 28.5 227.6 28.4C227.6 28.4 227.7 28.4 227.7 28.3C227.8 28.3 227.9 28.1 228.1 28C228.5 27.7 229.1 27 229.2 26C229.3 25.2 229 24.6 229 24.4C228.9 24.2 228.8 24 228.8 23.9C228.5 23.2 228.3 22.7 228.2 22.1C228 21.1 228 19.6 228.2 18.8C228.2 18.6 228.3 18.4 228.3 18.2V18.1C228.3 18.1 228.4 17.9 228.4 17.8V17.7C228.4 17.6 228.5 17.6 228.5 17.5C228.6 17.4 228.6 17.2 228.7 17.1C228.8 17 228.8 16.8 228.9 16.8C229.3 16 230.1 15.1 230.9 14.4C230.9 14.4 231 14.4 231 14.3C231.1 14.2 231.2 14.2 231.3 14.1C231.4 14 231.4 14 231.5 14H231.6C231.7 14 231.8 13.9 231.9 13.8C231.9 13.8 231.9 13.8 232 13.8C232 13.8 232.1 13.8 232.1 13.7C232.2 13.6 232.3 13.6 232.4 13.5C232.5 13.5 232.6 13.4 232.6 13.4H232.7C232.8 13.4 232.9 13.3 233 13.3C233.1 13.3 233.2 13.2 233.3 13.2C233.4 13.2 233.5 13.1 233.7 13.1C233.9 13.1 234.1 13 234.3 13C234.2 13 234.2 13 234.3 13C234.3 13 234.4 13 234.5 13C234.7 13 234.8 13 234.9 13C235.9 13 236.7 13.1 237.3 13.2C237.5 13.3 237.7 13.3 237.9 13.4C238 13.4 238 13.5 238.1 13.5C240.3 14.4 242 16.3 242.5 18.2C242.5 18.3 242.6 18.5 242.6 18.7V18.6C242.6 18.6 242.6 18.7 242.6 18.8C243 20.7 242.7 22.7 241.9 24.3C241.8 24.5 241.7 24.6 241.7 24.7C241.6 24.8 241.6 24.9 241.5 25C241.5 25 241.5 25.1 241.4 25.1C241.4 25.2 241.3 25.2 241.3 25.3C241.2 25.4 241.2 25.5 241.1 25.5L241 25.6C240.9 25.7 240.9 25.7 240.8 25.8C240.8 25.8 240.7 25.9 240.6 26C240.5 26.1 240.3 26.3 240.2 26.5C240 26.7 239.8 26.9 239.6 27.1C239.5 27.2 239.4 27.3 239.3 27.4C239.3 27.5 239.2 27.6 239 27.8C239 27.9 238.8 28.1 238.8 28.4C238.8 28.6 238.5 29.4 238.9 30.3C239 30.7 239.2 30.9 239.2 30.9C239.3 31 239.3 31.1 239.3 31.1C239.4 31.2 239.4 31.2 239.4 31.3C239.5 31.4 239.5 31.5 239.6 31.5C239.7 31.6 239.9 31.8 240 31.9C240.2 32 240.3 32.2 240.5 32.3C240.6 32.4 240.6 32.4 240.7 32.5C240.7 32.5 240.8 32.6 240.9 32.6C240.9 32.6 241 32.7 241.1 32.7C241.1 32.7 241.4 32.9 241.7 33C242.7 33.4 243.6 33.2 244.3 32.8C244.8 32.5 245.2 32.1 245.3 32L245.4 31.9C245.5 31.8 245.8 31.5 246 31.2C246.1 31.1 246.2 30.9 246.3 30.9L246.4 30.8C246.4 30.8 246.4 30.8 246.5 30.7C246.5 30.7 246.6 30.6 246.7 30.5C246.8 30.3 247 30.1 247.2 29.9C247.6 29.4 248.1 28.9 248.2 28.7C248.4 28.5 248.7 28.1 248.9 27.9C249.4 27.3 249.7 27.2 249.8 27.2C250.6 26.9 251.6 27.5 251.6 28.7C251.6 29 251.6 29.1 251.5 29.2C251.4 29.5 251 29.9 250.2 30.9C250.1 31 249.8 31.4 249.5 31.7C249.4 31.9 249.2 32 249.1 32.1C249.1 32.2 249 32.2 249 32.2C249 32.2 249 32.2 248.9 32.3L248.8 32.4C248.7 32.5 248.7 32.6 248.6 32.6L248.5 32.7C248.5 32.7 248.5 32.8 248.4 32.8C248.4 32.8 248.4 32.8 248.3 32.9C248.3 32.9 248.2 33 248.2 33.1C248.1 33.2 248 33.4 247.8 33.6C247.7 33.8 247.5 33.9 247.4 34C247.4 34.1 247.3 34.1 247.3 34.1L247.2 34.2L247.1 34.3C247 34.4 247 34.5 246.9 34.6C246.8 34.7 246.8 34.8 246.7 34.9C246.7 34.9 246.6 35 246.6 35.1C246.6 35.1 246.5 35.2 246.5 35.3C246.5 35.3 246.4 35.4 246.4 35.6C246.4 35.7 246.3 35.8 246.3 35.9C246.3 36 246.2 36.4 246.2 36.8C246.2 37.5 246.5 38.1 246.5 38.1C246.6 38.3 246.6 38.4 246.7 38.4C246.8 38.5 246.8 38.6 246.9 38.6C247 38.7 247 38.7 247 38.7L247.1 38.8C247.1 38.8 247.2 38.9 247.2 39C247.3 39.1 247.5 39.3 247.6 39.5C248 39.9 248.5 40.4 249 41C250.1 42.2 250.6 42.6 250.8 42.9L250.9 43C250.9 43 250.9 43.1 251 43.2C251.1 43.2 251.1 43.8 251 44.1Z" fill="#175EA8"/>
<path fill-rule="evenodd" clip-rule="evenodd" d="M231.2 22.5C231.4 22.8 231.6 23.1 231.6 23.1C231.7 23.2 231.8 23.3 231.9 23.4C232.1 23.6 232.2 23.8 232.4 24C232.6 24.2 232.8 24.4 232.9 24.5C233 24.6 233.1 24.7 233.2 24.8C233.3 24.8 233.4 24.9 233.5 25C233.6 25 233.9 25.3 234.4 25.4C234.9 25.5 235.2 25.5 235.4 25.5C235.6 25.5 235.7 25.5 235.9 25.4C236.1 25.4 236.4 25.3 236.6 25.2C238.6 24.4 239.7 22.6 239.9 20.9C240.1 19.2 239.5 16.9 237.1 15.9C235 15.1 233 16 231.9 17.3C230.8 18.6 230.3 20.6 231.2 22.5ZM235.9 18.8C237.4 19.4 237.1 21.8 235.4 22.5C235.3 22.5 235.2 22.6 235.1 22.5C235 22.5 233.9 21.4 233.8 21.2C233.2 19.9 234.6 18.3 235.9 18.8Z" fill="#175EA8"/>
</svg>
